<svg id="visual" viewBox="0 0 900 600" width="900" height="600" xmlns="http://www.w3.org/2000/svg" xmlns:xlink="http://www.w3.org/1999/xlink" version="1.1"><rect x="0" y="0" width="900" height="600" fill="#7f0000"></rect><defs><linearGradient id="grad1_0" x1="33.3%" y1="0%" x2="100%" y2="100%"><stop offset="20%" stop-color="#dd1a1a" stop-opacity="1"></stop><stop offset="80%" stop-color="#dd1a1a" stop-opacity="1"></stop></linearGradient></defs><defs><linearGradient id="grad1_1" x1="33.3%" y1="0%" x2="100%" y2="100%"><stop offset="20%" stop-color="#dd1a1a" stop-opacity="1"></stop><stop offset="80%" stop-color="#7f0000" stop-opacity="1"></stop></linearGradient></defs><defs><linearGradient id="grad2_0" x1="0%" y1="0%" x2="66.7%" y2="100%"><stop offset="20%" stop-color="#dd1a1a" stop-opacity="1"></stop><stop offset="80%" stop-color="#dd1a1a" stop-opacity="1"></stop></linearGradient></defs><defs><linearGradient id="grad2_1" x1="0%" y1="0%" x2="66.7%" y2="100%"><stop offset="20%" stop-color="#7f0000" stop-opacity="1"></stop><stop offset="80%" stop-color="#dd1a1a" stop-opacity="1"></stop></linearGradient></defs><g transform="translate(900, 0)"><path d="M0 486.7C-60.4 476.9 -120.7 467 -185.2 447.2C-249.7 427.3 -318.4 397.4 -344.2 344.2C-370 290.9 -352.9 214.3 -369.6 153.1C-386.2 91.8 -436.5 45.9 -486.7 0L0 0Z" fill="#ad0c0d"></path><path d="M0 243.4C-30.2 238.4 -60.4 233.5 -92.6 223.6C-124.9 213.6 -159.2 198.7 -172.1 172.1C-185 145.5 -176.5 107.2 -184.8 76.5C-193.1 45.9 -218.2 23 -243.4 0L0 0Z" fill="#dd1a1a"></path></g><g transform="translate(0, 600)"><path d="M0 -486.7C38.4 -418.6 76.7 -350.4 139.3 -336.3C201.9 -322.2 288.7 -362.1 344.2 -344.2C399.7 -326.2 424 -250.3 442.5 -183.3C461.1 -116.3 473.9 -58.1 486.7 0L0 0Z" fill="#ad0c0d"></path><path d="M0 -243.4C19.2 -209.3 38.4 -175.2 69.6 -168.1C100.9 -161.1 144.3 -181.1 172.1 -172.1C199.9 -163.1 212 -125.2 221.3 -91.7C230.5 -58.1 237 -29.1 243.4 0L0 0Z" fill="#dd1a1a"></path></g></svg>